# File created by Blade
# Date/Time:  Thu Jan 22 19:49:01 2015
# Frame Rate: 120.000 fps
#------------------------------------------------------
:FULLY-SPECIFIED
:DEGREES
3490
root -0.910000 31.664294 -2.894322 23.688878 -5.290081 1.214679
RightUpLeg -50.632207 -6.306780 -3.083326
RightLeg 45.901214 -0.000000 -0.000000
RightFoot -8.832847 -18.322857 -6.499221
RightToeBase -4.810727 -0.000000 0.000000
LeftUpLeg -46.684821 -2.431647 -1.976007
LeftLeg 38.442097 -0.000000 -0.000000
LeftFoot -19.252061 2.562056 -8.878755
LeftToeBase -3.578810 -0.000000 0.000000
Spine 6.458210 -3.658346 1.181374
RightShoulder -8.782611 -12.746590 -16.763838
RightArm 33.418654 -29.929834 67.046912
RightForeArm 7.317633 -0.000000 98.879820
RightHand 14.201605 -0.000000 3.154131
RightHandThumb1 -24.326973 -0.000000 -32.862282
LeftShoulder -12.833085 -1.714334 17.927737
LeftArm 12.461440 18.974098 -88.405103
LeftForeArm 3.279286 -0.000000 115.408156
LeftHand -5.598468 -0.000000 -13.217351
LeftHandThumb1 -26.253704 0.000000 33.147579
Head -39.450579 0.329224 -1.983454
3491
root -0.878371 31.778339 -2.783044 23.295926 -5.459134 1.209718
RightUpLeg -50.254754 -5.915904 -3.087018
RightLeg 46.122126 -0.000000 -0.000000
RightFoot -7.793504 -18.825340 -8.035131
RightToeBase -5.128587 -0.000000 0.000000
LeftUpLeg -45.517259 -2.261617 -2.171884
LeftLeg 37.201077 -0.000000 -0.000000
LeftFoot -18.738690 3.045427 -8.858588
LeftToeBase -1.246359 -0.000000 0.000000
Spine 6.130580 -3.603377 1.172625
RightShoulder -8.830257 -12.653526 -16.785544
RightArm 33.961297 -30.525513 66.891621
RightForeArm 7.967588 -0.000000 99.418848
RightHand 14.319069 0.000000 3.443397
RightHandThumb1 -24.326973 -0.000000 -32.862282
LeftShoulder -12.901063 -1.655702 18.045846
LeftArm 12.476589 20.191191 -88.651363
LeftForeArm 2.709233 -0.000000 115.050028
LeftHand -5.263128 -0.000000 -13.122438
LeftHandThumb1 -26.253704 0.000000 33.147579
Head -38.715024 0.498504 -2.044249
3492
root -0.850267 31.885207 -2.669217 22.901167 -5.644633 1.180845
RightUpLeg -49.837780 -5.557865 -3.026919
RightLeg 46.367268 -0.000000 -0.000000
RightFoot -7.641274 -18.900103 -8.536268
RightToeBase -4.214574 -0.000000 0.000000
LeftUpLeg -44.332855 -2.098277 -2.313698
LeftLeg 35.953726 -0.000000 -0.000000
LeftFoot -18.291794 3.385410 -8.990624
LeftToeBase 1.050028 -0.000000 -0.000000
Spine 5.804528 -3.543718 1.182295
RightShoulder -8.863351 -12.553070 -16.826858
RightArm 34.410690 -31.129688 66.813325
RightForeArm 8.740392 0.000000 99.821991
RightHand 14.467677 -0.000000 3.338738
RightHandThumb1 -24.326973 -0.000000 -32.862282
LeftShoulder -13.004609 -1.533506 18.154065
LeftArm 12.500178 21.349640 -88.963470
LeftForeArm 2.220977 -0.000000 114.508655
LeftHand -4.841011 -0.000000 -13.367895
LeftHandThumb1 -26.253704 0.000000 33.147579
Head -37.979128 0.694157 -2.108715
3493
root -0.821344 31.985521 -2.552988 22.521710 -5.815581 1.176879
RightUpLeg -49.426869 -5.206658 -2.980663
RightLeg 46.756142 -0.000000 -0.000000
RightFoot -8.537959 -18.715583 -8.096289
RightToeBase -3.890731 -0.000000 0.000000
LeftUpLeg -43.143067 -2.062142 -2.414692
LeftLeg 34.699660 -0.000000 -0.000000
LeftFoot -17.857459 3.729983 -9.004800
LeftToeBase 2.705938 -0.000000 -0.000000
Spine 5.455621 -3.516513 1.178910
RightShoulder -8.899043 -12.477617 -16.848379
RightArm 34.919507 -31.835524 66.591042
RightForeArm 9.667244 -0.000000 100.058338
RightHand 14.918634 -0.000000 3.007134
RightHandThumb1 -24.326973 -0.000000 -32.862282
LeftShoulder -13.131067 -1.404721 18.252351
LeftArm 12.440699 22.609432 -89.241541
LeftForeArm 1.542708 -0.000000 113.878306
LeftHand -4.350810 -0.000000 -13.503047
LeftHandThumb1 -26.253704 0.000000 33.147579
Head -37.252303 0.919437 -2.206036
3494
root -0.793647 32.075956 -2.435861 22.116506 -6.015202 1.219683
RightUpLeg -49.025774 -4.946187 -2.890183
RightLeg 47.257679 -0.000000 -0.000000
RightFoot -9.284945 -18.240379 -8.571023
RightToeBase -5.420882 -0.000000 0.000000
LeftUpLeg -41.954839 -2.032110 -2.552911
LeftLeg 33.536307 -0.000000 -0.000000
LeftFoot -17.557560 3.951243 -9.199078
LeftToeBase 4.265054 -0.000000 -0.000000
Spine 5.126105 -3.485738 1.091871
RightShoulder -8.922051 -12.329996 -16.897571
RightArm 35.204434 -32.475748 66.602852
RightForeArm 10.204175 -0.000000 100.170404
RightHand 14.998665 -0.000000 3.435703
RightHandThumb1 -24.326973 -0.000000 -32.862282
LeftShoulder -13.293967 -1.160652 18.387204
LeftArm 12.426431 23.890385 -89.525733
LeftForeArm 1.072361 -0.000000 113.124233
LeftHand -4.010737 -0.000000 -13.239866
LeftHandThumb1 -26.253704 0.000000 33.147579
Head -36.493391 1.154102 -2.238277
